<svg width="1082" height="267" viewBox="0 0 1082 267" fill="none" xmlns="http://www.w3.org/2000/svg">
<path d="M56.245 169.478H19.3999L19.6324 142.241H56.245C65.3884 142.241 73.0984 140.184 79.3748 136.071C85.6513 131.881 90.378 125.789 93.555 117.797C96.8094 109.804 98.4366 100.143 98.4366 88.8131V80.5487C98.4366 71.8575 97.5068 64.2139 95.6471 57.6179C93.8649 51.0219 91.1916 45.4735 87.6272 40.9727C84.0628 36.4719 79.6848 33.0963 74.4932 30.8459C69.3015 28.518 63.335 27.354 56.5937 27.354H18.7025V0H56.5937C67.9068 0 78.2513 1.94 87.6272 5.81999C97.0806 9.62238 105.255 15.0932 112.152 22.2324C119.048 29.3716 124.356 37.9075 128.075 47.8403C131.872 57.6955 133.771 68.6759 133.771 80.7815V88.8131C133.771 100.841 131.872 111.821 128.075 121.754C124.356 131.687 119.048 140.223 112.152 147.362C105.333 154.424 97.1581 159.895 87.6272 163.775C78.1738 167.577 67.7131 169.478 56.245 169.478ZM39.1591 0V169.478H4.28996V0H39.1591Z" fill="#0073A4"/>
<path d="M214.9 171.806C205.136 171.806 196.38 170.254 188.631 167.15C180.883 163.969 174.296 159.584 168.872 153.997C163.526 148.41 159.419 141.93 156.552 134.558C153.685 127.109 152.251 119.193 152.251 110.813V106.157C152.251 96.6118 153.607 87.8819 156.319 79.9667C159.031 72.0515 162.906 65.1839 167.942 59.3639C173.057 53.5439 179.256 49.0819 186.539 45.9779C193.823 42.7963 202.037 41.2055 211.18 41.2055C220.091 41.2055 227.995 42.6799 234.891 45.6287C241.788 48.5775 247.56 52.7679 252.21 58.1999C256.936 63.6319 260.501 70.1503 262.903 77.7551C265.305 85.2823 266.506 93.663 266.506 102.897V116.865H166.548V94.5166H233.613V91.9558C233.613 87.2999 232.76 83.1483 231.056 79.5011C229.428 75.7763 226.949 72.8275 223.617 70.6547C220.285 68.4819 216.023 67.3955 210.831 67.3955C206.415 67.3955 202.618 68.3655 199.441 70.3055C196.264 72.2455 193.668 74.9615 191.653 78.4535C189.716 81.9455 188.244 86.0583 187.237 90.7918C186.307 95.4478 185.842 100.569 185.842 106.157V110.813C185.842 115.857 186.539 120.513 187.934 124.781C189.406 129.049 191.46 132.735 194.094 135.839C196.806 138.943 200.061 141.348 203.858 143.055C207.732 144.763 212.11 145.616 216.992 145.616C223.036 145.616 228.654 144.452 233.845 142.124C239.114 139.719 243.647 136.11 247.444 131.299L263.716 148.992C261.082 152.794 257.479 156.441 252.907 159.933C248.413 163.425 242.989 166.297 236.635 168.547C230.281 170.72 223.036 171.806 214.9 171.806Z" fill="#0073A4"/>
<path d="M319.042 69.6071V169.478H285.451V43.5335H316.95L319.042 69.6071ZM314.393 102.083H305.094C305.094 93.3138 306.14 85.2435 308.233 77.8715C310.402 70.4219 313.54 63.9811 317.647 58.5491C321.832 53.0395 326.984 48.7715 333.106 45.7451C339.227 42.7187 346.317 41.2055 354.376 41.2055C359.955 41.2055 365.069 42.0591 369.719 43.7663C374.368 45.3959 378.358 47.9955 381.69 51.5651C385.1 55.0571 387.734 59.6355 389.594 65.3003C391.454 70.8875 392.383 77.5999 392.383 85.4375V169.478H358.909V89.1623C358.909 83.4199 358.134 78.9967 356.585 75.8927C355.035 72.7887 352.826 70.6159 349.959 69.3743C347.17 68.1327 343.799 67.5119 339.847 67.5119C335.508 67.5119 331.711 68.4043 328.457 70.1891C325.28 71.9739 322.645 74.4571 320.553 77.6387C318.461 80.7427 316.911 84.3899 315.904 88.5803C314.897 92.7706 314.393 97.2714 314.393 102.083ZM389.245 98.2414L377.274 99.7546C377.274 91.5291 378.281 83.8855 380.296 76.8239C382.388 69.7623 385.448 63.5543 389.478 58.1999C393.585 52.8455 398.66 48.6939 404.704 45.7451C410.748 42.7187 417.722 41.2055 425.625 41.2055C431.669 41.2055 437.171 42.0979 442.13 43.8827C447.089 45.5899 451.312 48.3447 454.799 52.1471C458.364 55.8719 461.076 60.7607 462.935 66.8135C464.873 72.8663 465.841 80.2771 465.841 89.0459V169.478H432.251V89.0459C432.251 83.2259 431.476 78.8027 429.926 75.7763C428.454 72.6723 426.284 70.5383 423.417 69.3743C420.628 68.1327 417.296 67.5119 413.421 67.5119C409.392 67.5119 405.866 68.3267 402.844 69.9563C399.822 71.5083 397.304 73.6811 395.289 76.4747C393.275 79.2683 391.764 82.5275 390.756 86.2523C389.749 89.8995 389.245 93.8958 389.245 98.2414Z" fill="#0073A4"/>
<path d="M486.414 107.786V105.342C486.414 96.1074 487.731 87.6103 490.366 79.8503C493 72.0127 496.836 65.2227 501.873 59.4803C506.909 53.7379 513.108 49.2759 520.469 46.0943C527.831 42.8351 536.277 41.2055 545.808 41.2055C555.339 41.2055 563.823 42.8351 571.262 46.0943C578.701 49.2759 584.939 53.7379 589.975 59.4803C595.089 65.2227 598.964 72.0127 601.598 79.8503C604.233 87.6103 605.55 96.1074 605.55 105.342V107.786C605.55 116.943 604.233 125.44 601.598 133.278C598.964 141.038 595.089 147.828 589.975 153.648C584.939 159.39 578.74 163.852 571.378 167.034C564.017 170.215 555.571 171.806 546.04 171.806C536.509 171.806 528.024 170.215 520.586 167.034C513.224 163.852 506.987 159.39 501.873 153.648C496.836 147.828 493 141.038 490.366 133.278C487.731 125.44 486.414 116.943 486.414 107.786ZM519.888 105.342V107.786C519.888 113.063 520.353 117.991 521.283 122.569C522.213 127.147 523.685 131.183 525.7 134.675C527.792 138.089 530.504 140.766 533.836 142.706C537.168 144.646 541.236 145.616 546.04 145.616C550.689 145.616 554.68 144.646 558.012 142.706C561.344 140.766 564.017 138.089 566.032 134.675C568.046 131.183 569.519 127.147 570.449 122.569C571.456 117.991 571.96 113.063 571.96 107.786V105.342C571.96 100.22 571.456 95.409 570.449 90.9082C569.519 86.3299 568.008 82.2947 565.916 78.8027C563.901 75.2331 561.228 72.4395 557.896 70.4219C554.564 68.4043 550.534 67.3955 545.808 67.3955C541.081 67.3955 537.052 68.4043 533.72 70.4219C530.465 72.4395 527.792 75.2331 525.7 78.8027C523.685 82.2947 522.213 86.3299 521.283 90.9082C520.353 95.409 519.888 100.22 519.888 105.342Z" fill="#0073A4"/>
<path d="M694.118 109.067H650.996V81.8291H694.118C700.782 81.8291 706.206 80.7427 710.39 78.5699C714.574 76.3195 717.635 73.2155 719.572 69.2579C721.509 65.3003 722.478 60.8383 722.478 55.8719C722.478 50.8279 721.509 46.1331 719.572 41.7875C717.635 37.4419 714.574 33.9499 710.39 31.3115C706.206 28.6732 700.782 27.354 694.118 27.354H663.084V169.478H628.215V0H694.118C707.368 0 718.72 2.4056 728.173 7.21679C737.704 11.9504 744.988 18.5076 750.025 26.8884C755.061 35.2691 757.58 44.8527 757.58 55.6391C757.58 66.5807 755.061 76.0479 750.025 84.0407C744.988 92.0334 737.704 98.2026 728.173 102.548C718.72 106.894 707.368 109.067 694.118 109.067Z" fill="#0073A4"/>
<path d="M772.573 107.786V105.342C772.573 96.1074 773.891 87.6103 776.525 79.8503C779.16 72.0127 782.995 65.2227 788.032 59.4803C793.069 53.7379 799.268 49.2759 806.629 46.0943C813.99 42.8351 822.436 41.2055 831.967 41.2055C841.498 41.2055 849.983 42.8351 857.422 46.0943C864.86 49.2759 871.098 53.7379 876.135 59.4803C881.249 65.2227 885.123 72.0127 887.758 79.8503C890.392 87.6103 891.71 96.1074 891.71 105.342V107.786C891.71 116.943 890.392 125.44 887.758 133.278C885.123 141.038 881.249 147.828 876.135 153.648C871.098 159.39 864.899 163.852 857.538 167.034C850.177 170.215 841.73 171.806 832.2 171.806C822.669 171.806 814.184 170.215 806.745 167.034C799.384 163.852 793.146 159.39 788.032 153.648C782.995 147.828 779.16 141.038 776.525 133.278C773.891 125.44 772.573 116.943 772.573 107.786ZM806.048 105.342V107.786C806.048 113.063 806.513 117.991 807.443 122.569C808.372 127.147 809.845 131.183 811.859 134.675C813.951 138.089 816.663 140.766 819.995 142.706C823.327 144.646 827.395 145.616 832.2 145.616C836.849 145.616 840.839 144.646 844.171 142.706C847.503 140.766 850.177 138.089 852.191 134.675C854.206 131.183 855.678 127.147 856.608 122.569C857.615 117.991 858.119 113.063 858.119 107.786V105.342C858.119 100.22 857.615 95.409 856.608 90.9082C855.678 86.3299 854.167 82.2947 852.075 78.8027C850.06 75.2331 847.387 72.4395 844.055 70.4219C840.723 68.4043 836.694 67.3955 831.967 67.3955C827.24 67.3955 823.211 68.4043 819.879 70.4219C816.625 72.4395 813.951 75.2331 811.859 78.8027C809.845 82.2947 808.372 86.3299 807.443 90.9082C806.513 95.409 806.048 100.22 806.048 105.342Z" fill="#0073A4"/>
<path d="M945.757 71.0039V169.478H912.282V43.5335H943.781L945.757 71.0039ZM983.648 42.7187L983.067 73.7975C981.44 73.5647 979.464 73.3707 977.139 73.2155C974.892 72.9827 972.838 72.8663 970.979 72.8663C966.252 72.8663 962.145 73.4871 958.658 74.7287C955.249 75.8927 952.382 77.6387 950.057 79.9667C947.81 82.2947 946.105 85.1271 944.943 88.4639C943.858 91.8007 943.238 95.603 943.083 99.871L936.342 97.7758C936.342 89.6279 937.156 82.1395 938.783 75.3107C940.41 68.4043 942.773 62.3903 945.873 57.2687C949.05 52.1471 952.924 48.1895 957.496 45.3959C962.068 42.6023 967.298 41.2055 973.187 41.2055C975.047 41.2055 976.945 41.3607 978.882 41.6711C980.82 41.9039 982.408 42.2531 983.648 42.7187Z" fill="#0073A4"/>
<path d="M1066.87 43.5335V67.2791H993.644V43.5335H1066.87ZM1011.78 12.4548H1045.25V131.532C1045.25 135.179 1045.71 137.973 1046.64 139.913C1047.65 141.853 1049.12 143.211 1051.06 143.987C1053 144.685 1055.44 145.034 1058.38 145.034C1060.48 145.034 1062.34 144.957 1063.96 144.801C1065.67 144.569 1067.1 144.336 1068.26 144.103L1068.38 168.78C1065.51 169.711 1062.41 170.448 1059.08 170.991C1055.75 171.535 1052.07 171.806 1048.04 171.806C1040.68 171.806 1034.25 170.603 1028.75 168.198C1023.32 165.715 1019.14 161.757 1016.19 156.325C1013.25 150.893 1011.78 143.754 1011.78 134.907V12.4548Z" fill="#0073A4"/>
<path d="M0 234.493H1082V267H0V234.493Z" fill="#0073A4"/>
</svg>
