<svg width="16" height="18" viewBox="0 0 16 18" fill="none" xmlns="http://www.w3.org/2000/svg">
<path d="M2.24006 15.1561C2.42006 15.1561 2.45606 15.1381 2.61806 15.1021L5.85806 14.4541C6.20006 14.3641 6.54206 14.2021 6.81206 13.9321L14.6601 6.08411C15.8661 4.87811 15.8661 2.80811 14.6601 1.60211L13.9941 0.900105C12.7881 -0.305895 10.7001 -0.305895 9.49406 0.900105L1.64606 8.76611C1.39406 9.01811 1.21406 9.37811 1.12406 9.72011L0.440065 12.9961C0.350065 13.6081 0.530064 14.2021 0.962064 14.6341C1.30406 14.9761 1.80806 15.1561 2.24006 15.1561ZM2.85206 10.0621L10.7001 2.19611C11.2221 1.67411 12.1761 1.67411 12.6801 2.19611L13.3641 2.88011C13.9761 3.49211 13.9761 4.35611 13.3641 4.95011L5.53406 12.8161L2.20406 13.3741L2.85206 10.0621Z" fill="#BFCAD0"/>
<path d="M14.5879 16.272H1.30394C0.781941 16.272 0.439941 16.614 0.439941 17.136C0.439941 17.658 0.871941 18 1.30394 18H14.5159C15.0379 18 15.4699 17.658 15.4699 17.136C15.4519 16.614 15.0199 16.272 14.5879 16.272Z" fill="#BFCAD0"/>
</svg>
