<svg width="14" height="10" viewBox="0 0 14 10" fill="none" xmlns="http://www.w3.org/2000/svg">
<path d="M5.44444 8.88905C5.44444 9.31861 5.79267 9.66683 6.22222 9.66683H7.77778C8.20733 9.66683 8.55556 9.31861 8.55556 8.88905C8.55556 8.4595 8.20733 8.11127 7.77778 8.11127H6.22222C5.79267 8.11127 5.44444 8.4595 5.44444 8.88905ZM0.777777 0.333496C0.348222 0.333496 0 0.681719 0 1.11127C0 1.54083 0.348223 1.88905 0.777778 1.88905H13.2222C13.6518 1.88905 14 1.54083 14 1.11127C14 0.681719 13.6518 0.333496 13.2222 0.333496H0.777777ZM2.33333 5.00016C2.33333 5.42972 2.68156 5.77794 3.11111 5.77794H10.8889C11.3184 5.77794 11.6667 5.42972 11.6667 5.00016C11.6667 4.57061 11.3184 4.22238 10.8889 4.22238H3.11111C2.68156 4.22238 2.33333 4.57061 2.33333 5.00016Z" fill="#002C44"/>
</svg>
