<svg width="20" height="24" viewBox="0 0 20 24" fill="none" xmlns="http://www.w3.org/2000/svg">
<path d="M14.978 11.346C15.623 10.389 16 9.23798 16 8.00002V6C16 2.691 13.309 0 9.99998 0C6.69098 0 3.99998 2.691 3.99998 6V8.00002C3.99998 9.23803 4.377 10.389 5.022 11.346C2.02598 13.074 0 16.3 0 20V21C0 22.654 1.34602 24 3 24H17C18.654 24 20 22.654 20 21V20C20 16.3 17.974 13.074 14.978 11.346ZM6 6C6 3.79402 7.794 2.00002 9.99998 2.00002C12.206 2.00002 14 3.79402 14 6V8.00002C14 10.206 12.206 12 9.99998 12C7.794 12 6 10.206 6 8.00002V6ZM18 21C18 21.551 17.551 22 17 22H3C2.44898 22 2.00002 21.551 2.00002 21V20C2.00002 16.861 3.81802 14.14 6.456 12.831C7.45102 13.562 8.67398 14 9.99998 14C11.326 14 12.549 13.562 13.544 12.831C16.182 14.14 18 16.861 18 20V21H18Z" fill="#002C44"/>
</svg>
